<?xml version="1.0" encoding="utf-8"?>
<!-- Generator: Adobe Illustrator 26.3.1, SVG Export Plug-In . SVG Version: 6.00 Build 0)  -->
<svg version="1.1" xmlns="http://www.w3.org/2000/svg" xmlns:xlink="http://www.w3.org/1999/xlink" x="0px" y="0px"
	 viewBox="0 0 700 700" style="enable-background:new 0 0 700 700;" xml:space="preserve">
<style type="text/css">
	.st0{display:none;}
	.st1{display:inline;fill:#FFFFFF;}
	.st2{display:inline;}
	.st3{display:none;fill:none;stroke:#000000;stroke-miterlimit:10;}
	.st4{fill:#603813;}
	.st5{display:inline;fill:none;stroke:#FFFFFF;stroke-width:2;stroke-miterlimit:10;}
	.st6{fill:none;stroke:#FFFFFF;stroke-width:2;stroke-miterlimit:10;}
</style>
<g id="Слой_1" class="st0">
	<rect x="-0.5" y="0.5" class="st1" width="699" height="700"/>
</g>
<g id="_x31_" class="st0">
	
		<image style="overflow:visible;" width="1280" height="1226" xlink:href="D50B3B0E.jpg"  transform="matrix(0.5469 0 0 0.5469 749 38)">
	</image>
	<g id="Слой_5" class="st2">
		<polygon points="414,507 382.5,450.4 456,440 389,425 415,380 369,404 367,100 351,54.7 335,100 333,404 287,380 313,425 246,440 
			319.5,450.4 288,507 338,475.9 338,609.2 325,641 351,618.9 377,641 364,609.2 364,475.9 		"/>
		<g id="Слой_4">
			<polygon points="249,380 203,444 254,509 220.9,444.5 			"/>
			<polygon points="450,380 496,444 445,509 478.1,444.5 			"/>
		</g>
		<g id="Слой_3">
			<path d="M271,84c-9.3,12.8-33.2,49.3-33,101c0.1,36.9,12.5,64.8,20,79c-16.7,11.3-50,37.4-69,83c-27.6,66.1-5.9,127,3,152
				c26.5,74.4,81.8,114.3,103,128c-24.8-2.2-97.7-11.9-156-70c-15.4-15.3-48.5-49.2-60-104c-5.7-27.2-4.2-50.6-2-66
				c4.3,13.5,12.6,34.1,29,55c18.8,24,39.9,37.8,53,45c-12.1-13.9-59.4-71.8-57-157c1.8-62.8,29.6-107.3,42-125
				c-0.1,16.8,1.5,38.9,8,64c5.3,20.2,12.4,37,19,50c-3.4-22.5-7-68,12-120C207,133.4,252.7,97.1,271,84z"/>
			<path d="M433,84c9.3,12.8,33.2,49.3,33,101c-0.1,36.9-12.5,64.8-20,79c16.7,11.3,50,37.4,69,83c27.6,66.1,5.9,127-3,152
				c-26.5,74.4-81.8,114.3-103,128c24.8-2.2,97.7-11.9,156-70c15.4-15.3,48.5-49.2,60-104c5.7-27.2,4.2-50.6,2-66
				c-4.3,13.5-12.6,34.1-29,55c-18.8,24-39.9,37.8-53,45c12.1-13.9,59.4-71.8,57-157c-1.8-62.8-29.6-107.3-42-125
				c0.1,16.8-1.5,38.9-8,64c-5.3,20.2-12.4,37-19,50c3.4-22.5,7-68-12-120C497,133.4,451.4,97.1,433,84z"/>
		</g>
		<circle class="st3" cx="1098.5" cy="444.5" r="187.5"/>
	</g>
</g>
<g id="_x32_">
	
		<image style="display:none;overflow:visible;" width="1280" height="1226" xlink:href="D50B3B12.jpg"  transform="matrix(0.5469 0 0 0.5469 749 38)">
	</image>
	<g id="Слой_5__x28_копия_x29_">
		<g id="Слой_4__x28_копия_x29_">
			<path d="M248.5,374.4c-10.2,24.5-23.5,47.4-37.5,69.8c0,0-0.1-6.6-0.1-6.6c16,23,31.3,46.6,43.1,72.2
				c-10.1-9.9-19.1-20.6-27.9-31.6c-9.6-12-18.6-24.4-27.3-37c0,0,2.2-3.3,2.2-3.3C215.4,415.5,230.6,393.8,248.5,374.4L248.5,374.4
				z"/>
			<path d="M452.5,374.4c17.9,19.5,33.2,41.2,47.6,63.3c0,0,2.2,3.3,2.2,3.3c-8.7,12.6-17.7,25-27.3,37c-8.8,11-17.8,21.7-27.9,31.6
				c11.8-25.5,27.1-49.1,43.1-72.2c0,0-0.1,6.6-0.1,6.6C475.9,421.7,462.6,398.8,452.5,374.4L452.5,374.4z"/>
		</g>
		<g id="Слой_3__x28_копия_x29_">
		</g>
		<circle class="st3" cx="351" cy="429" r="187.5"/>
	</g>
	<g id="Слой_12">
	</g>
	<g id="Слой_13">
		<path d="M414,507l-1.2-2.1c0.1,0,0.1,0.1,0.2,0.1c-8.4-18.4-16.8-36.9-25.2-55.3L456,440l-5.8-1.3c1.6-0.2,3.2-0.5,4.8-0.7
			c-21.7-4.9-43.4-9.7-65.1-14.6L415,380l-3.1,1.6c0.7-1.2,1.4-2.4,2.1-3.6c-14.3,7.5-28.7,14.9-43,22.4c0-0.1,0-0.2,0-0.4
			c-0.9-100.7-1.9-201.3-2.8-302c-5.7-15.3-11.4-30.7-17.1-46c-5.6,15.5-11.3,30.9-16.9,46.4c-1.4,100.7-2.8,201.3-4.1,302
			c-14.3-7.5-28.7-14.9-43-22.4c0.6,1,1.1,1.9,1.7,2.9L287,380l25,43.2c-22,4.9-44,9.8-66,14.8c1.8,0.3,3.6,0.5,5.4,0.8L246,440
			l67.3,9.5c-8.4,18.5-16.9,37-25.3,55.5c0.6-0.4,1.1-0.7,1.7-1.1L288,507l49.6-30.8v132c-4.2,10.6-8.4,21.3-12.6,31.9
			c0.2-0.2,0.4-0.3,0.6-0.5L325,641l26-22.1l26,22.1l-0.8-1.9c0.3,0.3,0.6,0.6,1,0.9l-12.6-31.6V476.3L414,507z"/>
	</g>
	<g id="Слой_6">
		<path d="M267,79c-9.8,14.8-37.6,61.3-30,122c3.5,27.4,13,48.8,21,63c-71,43.3-107.3,124.9-91,202c21.3,101.1,121,137.3,126,139
			c-14.2-0.3-103.8-3.5-167-78c-49-57.8-51.9-123-52-142c6,14.5,18,37.9,41.5,58.5c10.9,9.6,21.8,16.3,31,21
			C135.1,450.4,96.4,399.3,97,324c0.5-67.7,32.5-114.6,44-130c-0.6,17.6,0.7,43.8,10.5,73.5c6.6,20.1,15.3,36.1,23,48
			c-5.4-17.1-18.9-67.3,1-126C199.1,120.1,253,87,267,79z"/>
		<path d="M434,79c9.8,14.8,37.6,61.3,30,122c-3.5,27.4-13,48.8-21,63c71,43.3,107.3,124.9,91,202c-21.3,101.1-121,137.3-126,139
			c14.2-0.3,103.8-3.5,167-78c49-57.8,51.9-123,52-142c-6,14.5-18,37.9-41.5,58.5c-10.9,9.6-21.8,16.3-31,21
			c11.4-14.1,50.1-65.2,49.5-140.5c-0.5-67.7-32.5-114.6-44-130c0.6,17.6-0.7,43.8-10.5,73.5c-6.6,20.1-15.3,36.1-23,48
			c5.4-17.1,18.9-67.3-1-126C501.9,120.1,448,87,434,79z"/>
	</g>
</g>
<g id="_x33_" class="st0">
	
		<image style="overflow:visible;" width="1280" height="1226" xlink:href="D50B3B15.jpg"  transform="matrix(0.5469 0 0 0.5469 749 38)">
	</image>
	<g id="Слой_5__x28_копия2_x29_" class="st2">
		<g id="Слой_4__x28_копия2_x29_">
			<path d="M248.5,374.4c-10.2,24.5-23.5,47.4-37.5,69.8c0,0-0.1-6.6-0.1-6.6c16,23,31.3,46.6,43.1,72.2
				c-10.1-9.9-19.1-20.6-27.9-31.6c-9.6-12-18.6-24.4-27.3-37c0,0,2.2-3.3,2.2-3.3C215.4,415.5,230.6,393.8,248.5,374.4L248.5,374.4
				z"/>
			<path d="M452.5,374.4c17.9,19.5,33.2,41.2,47.6,63.3c0,0,2.2,3.3,2.2,3.3c-8.7,12.6-17.7,25-27.3,37c-8.8,11-17.8,21.7-27.9,31.6
				c11.8-25.5,27.1-49.1,43.1-72.2c0,0-0.1,6.6-0.1,6.6C475.9,421.7,462.6,398.8,452.5,374.4L452.5,374.4z"/>
		</g>
		<g id="Слой_3__x28_копия2_x29_">
		</g>
		<circle class="st3" cx="351" cy="429" r="187.5"/>
	</g>
	<g id="Слой_12__x28_копия_x29_" class="st2">
	</g>
	<g id="Слой_13__x28_копия_x29_" class="st2">
	</g>
	<g id="Слой_6__x28_копия_x29_" class="st2">
		<path d="M267,79c-9.8,14.8-37.6,61.3-30,122c3.5,27.4,13,48.8,21,63c-71,43.3-107.3,124.9-91,202c21.3,101.1,121,137.3,126,139
			c-14.2-0.3-103.8-3.5-167-78c-49-57.8-51.9-123-52-142c6,14.5,18,37.9,41.5,58.5c10.9,9.6,21.8,16.3,31,21
			C135.1,450.4,96.4,399.3,97,324c0.5-67.7,32.5-114.6,44-130c-0.6,17.6,0.7,43.8,10.5,73.5c6.6,20.1,15.3,36.1,23,48
			c-5.4-17.1-18.9-67.3,1-126C199.1,120.1,253,87,267,79z"/>
		<path d="M434,79c9.8,14.8,37.6,61.3,30,122c-3.5,27.4-13,48.8-21,63c71,43.3,107.3,124.9,91,202c-21.3,101.1-121,137.3-126,139
			c14.2-0.3,103.8-3.5,167-78c49-57.8,51.9-123,52-142c-6,14.5-18,37.9-41.5,58.5c-10.9,9.6-21.8,16.3-31,21
			c11.4-14.1,50.1-65.2,49.5-140.5c-0.5-67.7-32.5-114.6-44-130c0.6,17.6-0.7,43.8-10.5,73.5c-6.6,20.1-15.3,36.1-23,48
			c5.4-17.1,18.9-67.3-1-126C501.9,120.1,448,87,434,79z"/>
	</g>
	<g id="Слой_22" class="st2">
		<g id="Слой_14">
			<g>
				<path d="M330,419.9l-21.9,4.7c-19.9,4.5-39.9,8.9-59.8,13.4h66.3v1h-66.3c19,4.4,38.1,8.7,57.1,13.1l32.7,5l-0.5,17.5
					c0,0,0.1-0.1,0.1-0.1c0.4,44,0.9,88.1,1.3,132.1l11-22.8V458h2v125.8l11,22.8c0.5-42.9,1-85.7,1.6-128.6l-0.6-20.9l32.7-5
					c19-4.4,38.1-8.7,57.1-13.1h-67.3v-1h67.3c-21.6-4.8-43.2-9.7-64.8-14.5c0-0.1,0.1-0.1,0.1-0.2l-18.1-3.9v-18c0,0,0,0-0.1,0
					c0-0.5,0-0.9,0.1-1.4c-2-100.3-4-200.7-6-301c-4.3-14.6-8.7-29.2-13-43.8V420h-2V55.6c-4.3,14.5-8.7,29-13,43.4
					c-2.3,100.6-4.7,201.2-7,301.9c0,0,0,0,0,0V419.9z"/>
				<path d="M337,458.7L288.7,505c15.9-9.9,31.8-19.9,47.7-29.8L337,458.7z"/>
				<path d="M336.4,457.8l-24.9-3.8c-7.5,16.5-15,32.9-22.5,49.4L336.4,457.8z"/>
				<path d="M372,400.9v16.9l41.9-38.7C399.9,386.3,386,393.6,372,400.9z"/>
				<path d="M372.5,418.7l17.2,3.7c8.1-14,16.1-27.9,24.2-41.9L372.5,418.7z"/>
				<path d="M329,418.3v-18c-13.7-7.1-27.5-14.3-41.2-21.4L329,418.3z"/>
				<path d="M365.5,457.8l47.6,45.7c-7.5-16.5-15.1-33-22.6-49.5L365.5,457.8z"/>
				<path d="M351,617c8.6,7.5,17.1,15.1,25.7,22.6L351,586.3l-25.9,53.6c0,0,0,0.1,0,0.1C333.7,632.3,342.4,624.7,351,617z"/>
				<path d="M328.5,419.2l-40.1-38.4c8.1,13.9,16.1,27.9,24.2,41.8L328.5,419.2z"/>
				<path d="M365,458.8l0.5,16.4c15.8,9.9,31.7,19.8,47.5,29.7L365,458.8z"/>
			</g>
		</g>
	</g>
</g>
<g id="_x34_" class="st0">
	
		<image style="overflow:visible;" width="1280" height="1226" xlink:href="D50B3B16.jpg"  transform="matrix(0.5469 0 0 0.5469 749 38)">
	</image>
	<g id="Слой_5__x28_копия3_x29_" class="st2">
		<g id="Слой_4__x28_копия3_x29_">
			<path d="M248.5,374.4c-10.2,24.5-23.5,47.4-37.5,69.8c0,0-0.1-6.6-0.1-6.6c16,23,31.3,46.6,43.1,72.2
				c-10.1-9.9-19.1-20.6-27.9-31.6c-9.6-12-18.6-24.4-27.3-37c0,0,2.2-3.3,2.2-3.3C215.4,415.5,230.6,393.8,248.5,374.4L248.5,374.4
				z"/>
			<path d="M452.5,374.4c17.9,19.5,33.2,41.2,47.6,63.3c0,0,2.2,3.3,2.2,3.3c-8.7,12.6-17.7,25-27.3,37c-8.8,11-17.8,21.7-27.9,31.6
				c11.8-25.5,27.1-49.1,43.1-72.2c0,0-0.1,6.6-0.1,6.6C475.9,421.7,462.6,398.8,452.5,374.4L452.5,374.4z"/>
		</g>
		<g id="Слой_3__x28_копия3_x29_">
		</g>
		<circle class="st3" cx="351" cy="429" r="187.5"/>
	</g>
	<g id="Слой_12__x28_копия2_x29_" class="st2">
	</g>
	<g id="Слой_13__x28_копия2_x29_" class="st2">
	</g>
	<g id="Слой_6__x28_копия2_x29_" class="st2">
		<path d="M267,79c-9.8,14.8-37.6,61.3-30,122c3.5,27.4,13,48.8,21,63c-71,43.3-107.3,124.9-91,202c21.3,101.1,121,137.3,126,139
			c-14.2-0.3-103.8-3.5-167-78c-49-57.8-51.9-123-52-142c6,14.5,18,37.9,41.5,58.5c10.9,9.6,21.8,16.3,31,21
			C135.1,450.4,96.4,399.3,97,324c0.5-67.7,32.5-114.6,44-130c-0.6,17.6,0.7,43.8,10.5,73.5c6.6,20.1,15.3,36.1,23,48
			c-5.4-17.1-18.9-67.3,1-126C199.1,120.1,253,87,267,79z"/>
		<path d="M434,79c9.8,14.8,37.6,61.3,30,122c-3.5,27.4-13,48.8-21,63c71,43.3,107.3,124.9,91,202c-21.3,101.1-121,137.3-126,139
			c14.2-0.3,103.8-3.5,167-78c49-57.8,51.9-123,52-142c-6,14.5-18,37.9-41.5,58.5c-10.9,9.6-21.8,16.3-31,21
			c11.4-14.1,50.1-65.2,49.5-140.5c-0.5-67.7-32.5-114.6-44-130c0.6,17.6-0.7,43.8-10.5,73.5c-6.6,20.1-15.3,36.1-23,48
			c5.4-17.1,18.9-67.3-1-126C501.9,120.1,448,87,434,79z"/>
	</g>
	<g id="Слой_22__x28_копия_x29_" class="st2">
		<g id="Слой_14__x28_копия_x29_">
			<g>
				<path d="M334.8,458.7l-23.8-3.6c-7.2,15.7-14.3,31.4-21.5,47.2L334.8,458.7z"/>
				<path d="M330,419.7l-17,3.8c0,0,0,0,0,0c-20.8,4.7-41.7,9.3-62.5,14h64v2h-64.1c18.6,4.3,37.2,8.5,55.8,12.8l30.4,4.7l0.1-0.1
					l0.2,0.2l1.3,0.2l-0.5,24.6c0.4,41.6,0.8,83.1,1.3,124.7l11-22.8V458h2v125.8l11,22.8c0.5-39,0.9-78,1.4-117l-0.6-32.4l32-4.9
					c18.6-4.3,37.2-8.5,55.8-12.8h-65.1v-2h65c-20.1-4.5-40.2-9-60.3-13.5l-20.3-4.2v-18.4c0,0,0,0-0.1,0c0-0.5,0-0.9,0.1-1.4
					c-2-100.3-4-200.7-6-301c-4.3-14.6-8.7-29.2-13-43.8V420h-2V55.6c-4.3,14.5-8.7,29-13,43.4c-2.3,100.6-4.7,201.2-7,301.9
					c0,0,0,0,0,0V419.7z"/>
				<path d="M373,400.3v16.4l39.4-36.8C399.2,386.7,386.1,393.5,373,400.3z"/>
				<path d="M374.1,418.4l15.9,3.3c7.6-13.2,15.3-26.4,22.9-39.6L374.1,418.4z"/>
				<path d="M336.1,460.2l-45.3,43.6c15-9.4,30-18.8,45-28.1L336.1,460.2z"/>
				<path d="M351,617c8.6,7.5,17.1,15.1,25.7,22.6L351,586.3l-25.9,53.6c0,0,0,0.1,0,0.1C333.7,632.3,342.4,624.7,351,617z"/>
				<path d="M326.9,418.4l-37.7-36c7.6,13.1,15.1,26.2,22.7,39.3L326.9,418.4z"/>
				<path d="M328,416.7v-16.8c-12.9-6.7-25.7-13.4-38.6-20.1L328,416.7z"/>
				<path d="M367.2,458.7l45.4,43.6c-7.2-15.8-14.4-31.5-21.6-47.3L367.2,458.7z"/>
				<path d="M365.9,460.2l0.3,15.4c14.9,9.3,29.9,18.7,44.8,28L365.9,460.2z"/>
			</g>
		</g>
	</g>
</g>
<g id="_x35_" class="st0">
	<g id="_x34___x28_копия_x29_" class="st2">
		
			<image style="display:none;overflow:visible;" width="1280" height="1226" xlink:href="D50B3B14.jpg"  transform="matrix(0.5469 0 0 0.5469 749 38)">
		</image>
		<g id="Слой_5__x28_копия4_x29_">
			<g id="Слой_4__x28_копия4_x29_">
				<path d="M248.5,374.4c-10.2,24.5-23.5,47.4-37.5,69.8c0,0-0.1-6.6-0.1-6.6c16,23,31.3,46.6,43.1,72.2
					c-10.1-9.9-19.1-20.6-27.9-31.6c-9.6-12-18.6-24.4-27.3-37c0,0,2.2-3.3,2.2-3.3C215.4,415.5,230.6,393.8,248.5,374.4
					L248.5,374.4z"/>
				<path d="M452.5,374.4c17.9,19.5,33.2,41.2,47.6,63.3c0,0,2.2,3.3,2.2,3.3c-8.7,12.6-17.7,25-27.3,37
					c-8.8,11-17.8,21.7-27.9,31.6c11.8-25.5,27.1-49.1,43.1-72.2c0,0-0.1,6.6-0.1,6.6C475.9,421.7,462.6,398.8,452.5,374.4
					L452.5,374.4z"/>
			</g>
			<g id="Слой_3__x28_копия4_x29_">
			</g>
			<circle class="st3" cx="351" cy="429" r="187.5"/>
		</g>
		<g id="Слой_12__x28_копия3_x29_">
		</g>
		<g id="Слой_13__x28_копия3_x29_">
		</g>
		<g id="Слой_22__x28_копия2_x29_">
			<g id="Слой_14__x28_копия2_x29_">
				<g>
					<path d="M311.2,421.8l16.8-3.7v-18.3c-13.7-7.1-27.3-14.2-41-21.3c0.4,0.7,0.8,1.4,1.2,2.1L287,380L311.2,421.8z"/>
					<path d="M415,380l-1.2,0.6c0.4-0.7,0.8-1.4,1.2-2.1c-14,7.3-28,14.6-42,21.8v17.8l17.8,3.7L415,380z"/>
					<path d="M335.8,477.3l0.4-18.4l-25.2-3.9c-7.7,16.8-15.3,33.6-23,50.4c0.4-0.3,0.9-0.5,1.3-0.8L288,507L335.8,477.3z"/>
					<path d="M391,455.1l-25.2,3.9l0.4,18.4L414,507l-1.3-2.3c0.4,0.3,0.9,0.5,1.3,0.8C406.3,488.7,398.7,471.9,391,455.1z"/>
					<path d="M456,438.5c-21.6-4.8-43.2-9.7-64.7-14.5l-20.3-4.2v-18.4c0,0,0,0-0.1,0c0-0.5,0-0.9,0.1-1.4c-1-50.6-2-101.2-3-151.7
						L367,100l-10.7-30.2c-1.4-4.9-2.9-9.7-4.3-14.6V420h-2V55.6c-1.3,4.3-2.5,8.5-3.8,12.8L335,100l-0.8,119.1
						c-1.4,60.6-2.8,121.2-4.2,181.8c0,0,0,0,0,0v18.9l-17.8,3.9l0,0c-22.1,4.9-44.2,9.9-66.2,14.8c1.1,0.3,2.2,0.5,3.3,0.8L246,440
						l17,2.4c14.4,3.3,28.8,6.6,43.1,9.9l32,4.9l-0.5,24.6c0.1,9.4,0.2,18.8,0.3,28.2v98.6l12-24.8V458h2v125.8l12,24.8v-82.7
						c0.1-12.1,0.3-24.2,0.4-36.3l-0.6-32.4l32-4.9c14.4-3.3,28.8-6.6,43.1-9.9l17-2.4l-3.3-0.7C453.8,439,454.9,438.8,456,438.5z"
						/>
					<path d="M376.8,639.6L351,586.3l-25.9,53.6c0,0,0,0.1,0,0.1c0.2-0.2,0.4-0.3,0.6-0.5L325,641l26-22.1l26,22.1l-0.8-1.9
						C376.4,639.3,376.6,639.5,376.8,639.6z"/>
				</g>
			</g>
		</g>
		<g id="Слой_6__x28_копия3_x29_">
			<path d="M267,79c-9.8,14.8-37.6,61.3-30,122c3.5,27.4,13,48.8,21,63c-71,43.3-107.3,124.9-91,202c21.3,101.1,121,137.3,126,139
				c-14.2-0.3-103.8-3.5-167-78c-49-57.8-51.9-123-52-142c6,14.5,18,37.9,41.5,58.5c10.9,9.6,21.8,16.3,31,21
				C135.1,450.4,96.4,399.3,97,324c0.5-67.7,32.5-114.6,44-130c-0.6,17.6,0.7,43.8,10.5,73.5c6.6,20.1,15.3,36.1,23,48
				c-5.4-17.1-18.9-67.3,1-126C199.1,120.1,253,87,267,79z"/>
			<path d="M434,79c9.8,14.8,37.6,61.3,30,122c-3.5,27.4-13,48.8-21,63c71,43.3,107.3,124.9,91,202c-21.3,101.1-121,137.3-126,139
				c14.2-0.3,103.8-3.5,167-78c49-57.8,51.9-123,52-142c-6,14.5-18,37.9-41.5,58.5c-10.9,9.6-21.8,16.3-31,21
				c11.4-14.1,50.1-65.2,49.5-140.5c-0.5-67.7-32.5-114.6-44-130c0.6,17.6-0.7,43.8-10.5,73.5c-6.6,20.1-15.3,36.1-23,48
				c5.4-17.1,18.9-67.3-1-126C501.9,120.1,448,87,434,79z"/>
		</g>
	</g>
</g>
<g id="_x36_" class="st0">
	
		<image style="overflow:visible;" width="1280" height="1226" xlink:href="D50B3B13.jpg"  transform="matrix(0.5469 0 0 0.5469 749 38)">
	</image>
	<g id="Слой_5__x28_копия5_x29_" class="st2">
		<g id="Слой_4__x28_копия5_x29_">
			<path d="M248.5,374.4c-10.2,24.5-23.5,47.4-37.5,69.8c0,0-0.1-6.6-0.1-6.6c16,23,31.3,46.6,43.1,72.2
				c-10.1-9.9-19.1-20.6-27.9-31.6c-9.6-12-18.6-24.4-27.3-37c0,0,2.2-3.3,2.2-3.3C215.4,415.5,230.6,393.8,248.5,374.4L248.5,374.4
				z"/>
			<path d="M452.5,374.4c17.9,19.5,33.2,41.2,47.6,63.3c0,0,2.2,3.3,2.2,3.3c-8.7,12.6-17.7,25-27.3,37c-8.8,11-17.8,21.7-27.9,31.6
				c11.8-25.5,27.1-49.1,43.1-72.2c0,0-0.1,6.6-0.1,6.6C475.9,421.7,462.6,398.8,452.5,374.4L452.5,374.4z"/>
		</g>
		<g id="Слой_3__x28_копия5_x29_">
		</g>
		<circle class="st3" cx="351" cy="429" r="187.5"/>
	</g>
	<g id="Слой_12__x28_копия4_x29_" class="st2">
	</g>
	<g id="Слой_13__x28_копия4_x29_" class="st2">
	</g>
	<g id="Слой_6__x28_копия4_x29_" class="st2">
		<path d="M267,79c-9.8,14.8-37.6,61.3-30,122c3.5,27.4,13,48.8,21,63c-71,43.3-107.3,124.9-91,202c21.3,101.1,121,137.3,126,139
			c-14.2-0.3-103.8-3.5-167-78c-49-57.8-51.9-123-52-142c6,14.5,18,37.9,41.5,58.5c10.9,9.6,21.8,16.3,31,21
			C135.1,450.4,96.4,399.3,97,324c0.5-67.7,32.5-114.6,44-130c-0.6,17.6,0.7,43.8,10.5,73.5c6.6,20.1,15.3,36.1,23,48
			c-5.4-17.1-18.9-67.3,1-126C199.1,120.1,253,87,267,79z"/>
		<path d="M434,79c9.8,14.8,37.6,61.3,30,122c-3.5,27.4-13,48.8-21,63c71,43.3,107.3,124.9,91,202c-21.3,101.1-121,137.3-126,139
			c14.2-0.3,103.8-3.5,167-78c49-57.8,51.9-123,52-142c-6,14.5-18,37.9-41.5,58.5c-10.9,9.6-21.8,16.3-31,21
			c11.4-14.1,50.1-65.2,49.5-140.5c-0.5-67.7-32.5-114.6-44-130c0.6,17.6-0.7,43.8-10.5,73.5c-6.6,20.1-15.3,36.1-23,48
			c5.4-17.1,18.9-67.3-1-126C501.9,120.1,448,87,434,79z"/>
	</g>
	<g id="Слой_22__x28_копия3_x29_" class="st2">
		<g id="Слой_14__x28_копия3_x29_">
			<g>
				<path d="M351,617c8.6,7.5,17.1,15.1,25.7,22.6L351,586.3l-25.9,53.6c0,0,0,0.1,0,0.1C333.7,632.3,342.4,624.7,351,617z"/>
				<path d="M330,419.7l-17,3.8c0,0,0,0,0,0c-20.8,4.7-41.7,9.3-62.5,14h64v2h-64.1c18.6,4.3,37.2,8.5,55.8,12.8l32,4.9l-0.5,24.6
					c0.4,41.6,0.8,83.1,1.3,124.7l11-22.8V458h2v125.8l11,22.8c0.5-39,0.9-78,1.4-117l-0.6-32.4l32-4.9c18.6-4.3,37.2-8.5,55.8-12.8
					h-65.1v-2h65c-20.1-4.5-40.2-9-60.3-13.5l-20.3-4.2v-18.4c0,0,0,0-0.1,0c0-0.5,0-0.9,0.1-1.4c-2-100.3-4-200.7-6-301
					c-4.3-14.6-8.7-29.2-13-43.8V420h-2V55.6c-4.3,14.5-8.7,29-13,43.4c-2.3,100.6-4.7,201.2-7,301.9c0,0,0,0,0,0V419.7z"/>
				<path d="M373,400.3v17.8l17,3.5c8.3-14.4,16.6-28.8,25-43.2C401,385.8,387,393.1,373,400.3z"/>
				<path d="M365.8,458.9l0.3,16.7c15.9,10,31.9,19.9,47.8,29.9c-7.7-16.8-15.3-33.6-23-50.4L365.8,458.9z"/>
				<path d="M336.2,458.9l-25.2-3.9c-7.7,16.8-15.3,33.6-23,50.4c15.9-10,31.9-19.9,47.8-29.9L336.2,458.9z"/>
				<path d="M328,418.1v-18.3c-13.7-7.1-27.3-14.2-41-21.3c8.3,14.4,16.6,28.8,24.9,43.2L328,418.1z"/>
			</g>
		</g>
	</g>
</g>
<g id="_x37_" class="st0">
	
		<image style="overflow:visible;" width="1280" height="1226" xlink:href="D50B3B1D.jpg"  transform="matrix(0.5469 0 0 0.5469 749 38)">
	</image>
	<g id="Слой_5__x28_копия6_x29_" class="st2">
		<polygon class="st4" points="414,507 382.5,450.4 456,440 389,425 415,380 369,404 367,100 351,54.7 335,100 333,404 287,380 
			313,425 246,440 319.5,450.4 288,507 338,475.9 338,609.2 325,641 351,618.9 377,641 364,609.2 364,475.9 		"/>
		<g id="Слой_4__x28_копия6_x29_" class="st0">
			<g class="st2">
				<path d="M248.5,374.4c-10.2,24.5-23.5,47.4-37.5,69.8c0,0-0.1-6.6-0.1-6.6c16,23,31.3,46.6,43.1,72.2
					c-10.1-9.9-19.1-20.6-27.9-31.6c-9.6-12-18.6-24.4-27.3-37c0,0,2.2-3.3,2.2-3.3C215.4,415.5,230.6,393.8,248.5,374.4
					L248.5,374.4z"/>
			</g>
			<g class="st2">
				<path d="M452.5,374.4c17.9,19.5,33.2,41.2,47.6,63.3c0,0,2.2,3.3,2.2,3.3c-8.7,12.6-17.7,25-27.3,37
					c-8.8,11-17.8,21.7-27.9,31.6c11.8-25.5,27.1-49.1,43.1-72.2c0,0-0.1,6.6-0.1,6.6C475.9,421.7,462.6,398.8,452.5,374.4
					L452.5,374.4z"/>
			</g>
		</g>
		<g id="Слой_3__x28_копия6_x29_">
		</g>
		<circle class="st3" cx="351" cy="429" r="187.5"/>
	</g>
	<g id="Слой_12__x28_копия5_x29_" class="st2">
		<path d="M363,608c0.5-44.7,1.1-89.3,1.6-134h3.5c0.9-24.7,1.9-49.3,2.8-74c-2-100.3-4-200.7-6-301c-4.6-15.7-9.3-31.3-13.9-47
			c-4.7,15.7-9.4,31.3-14.1,47c-2.3,100.7-4.7,201.3-7,302c1.4,24.3,2.8,48.7,4.2,73c1.2,0,2.3,0,3.5,0c0.5,44.7,0.9,89.3,1.4,134
			c-4.7,10.7-9.3,21.3-14,32c8.7-7.7,17.3-15.3,26-23c8.7,7.7,17.4,15.3,26.2,23C372.5,629.3,367.7,618.7,363,608z"/>
	</g>
	<g id="Слой_13__x28_копия5_x29_" class="st2">
	</g>
	<g id="Слой_6__x28_копия5_x29_" class="st2">
		<path d="M283.6,165.7c-7.8,11.8-30,48.8-23.9,97.1c2.7,21.8,10.4,38.9,16.7,50.1c-56.5,34.5-85.3,99.4-72.4,160.7
			c17,80.4,96.3,109.2,100.3,110.6c-11.3-0.2-82.6-2.8-132.9-62.1c-39-46-41.3-97.8-41.4-113c4.7,11.6,14.3,30.2,33,46.5
			c8.7,7.6,17.3,13,24.7,16.7c-9.1-11.2-39.9-51.8-39.4-111.8c0.4-53.9,25.8-91.2,35-103.4c-0.5,14,0.5,34.9,8.4,58.5
			c5.3,16,12.2,28.7,18.3,38.2c-4.3-13.6-15-53.6,0.8-100.3C229.5,198.4,272.4,172.1,283.6,165.7z"/>
		<path d="M416.4,165.7c7.8,11.8,30,48.8,23.9,97.1c-2.7,21.8-10.4,38.9-16.7,50.1c56.5,34.5,85.3,99.4,72.4,160.7
			c-17,80.4-96.3,109.2-100.3,110.6c11.3-0.2,82.6-2.8,132.9-62.1c39-46,41.3-97.8,41.4-113c-4.7,11.6-14.3,30.2-33,46.5
			c-8.7,7.6-17.3,13-24.7,16.7c9.1-11.2,39.9-51.8,39.4-111.8c-0.4-53.9-25.8-91.2-35-103.4c0.5,14-0.5,34.9-8.4,58.5
			c-5.3,16-12.2,28.7-18.3,38.2c4.3-13.6,15-53.6-0.8-100.3C470.5,198.4,427.6,172.1,416.4,165.7z"/>
	</g>
	<g id="Слой_22__x28_копия4_x29_" class="st2">
		<path d="M344,470.5c-2.3-22-4.7-44-7-66c-16.7-8.7-33.3-17.3-50-26c8.7,15,17.3,30,26,45c-22.3,5-44.7,10-67,15
			c21.9,5,43.8,10.1,65.7,15.1c-7.9,17.3-15.8,34.6-23.7,51.9C306.7,493.8,325.3,482.2,344,470.5z"/>
		<path d="M358,470.5c2.3-22,4.7-44,7-66c16.7-8.7,33.3-17.3,50-26c-8.7,15-17.3,30-26,45c22.3,5,44.7,10,67,15
			c-21.9,5-43.8,10.1-65.7,15.1c7.9,17.3,15.8,34.6,23.7,51.9C395.3,493.8,376.7,482.2,358,470.5z"/>
	</g>
	<line class="st5" x1="314.5" y1="438.5" x2="245.5" y2="438.5"/>
	<line class="st5" x1="457" y1="438.5" x2="386.5" y2="438.5"/>
	<g id="Слой_14__x28_копия4_x29_" class="st2">
		<polygon class="st6" points="351,584 322,644 380,644 		"/>
		<line class="st6" x1="351" y1="458" x2="351" y2="586"/>
		<line class="st6" x1="351" y1="52" x2="351" y2="420"/>
	</g>
	<path class="st5" d="M301.5,425c9.2-2,18.3-4.1,27.5-6.1c0-9.8,0-19.6,0-29.4"/>
	<path class="st5" d="M336.5,492.5c0.2-11.5,0.5-23,0.7-34.4c-11.4-1.8-22.9-3.5-34.3-5.3"/>
	<path class="st5" d="M365.5,492.5c-0.2-11.5-0.5-23-0.7-34.4c11.4-1.8,22.9-3.5,34.3-5.3"/>
	<path class="st5" d="M401,425c-9.7-2-19.3-4-29-6c0-9.7,0-19.3,0-29"/>
</g>
<g id="_x38_" class="st0">
	
		<image style="overflow:visible;" width="1280" height="1226" xlink:href="D50B3B1E.jpg"  transform="matrix(0.5469 0 0 0.5469 749 38)">
	</image>
	<g id="Слой_5__x28_копия7_x29_" class="st2">
		<polygon class="st4" points="414,507 382.5,450.4 456,440 389,425 415,380 369,404 367,100 351,54.7 335,100 333,404 287,380 
			313,425 246,440 319.5,450.4 288,507 338,475.9 338,609.2 325,641 351,618.9 377,641 364,609.2 364,475.9 		"/>
		<g id="Слой_4__x28_копия7_x29_" class="st0">
			<g class="st2">
				<path d="M248.5,374.4c-10.2,24.5-23.5,47.4-37.5,69.8c0,0-0.1-6.6-0.1-6.6c16,23,31.3,46.6,43.1,72.2
					c-10.1-9.9-19.1-20.6-27.9-31.6c-9.6-12-18.6-24.4-27.3-37c0,0,2.2-3.3,2.2-3.3C215.4,415.5,230.6,393.8,248.5,374.4
					L248.5,374.4z"/>
			</g>
			<g class="st2">
				<path d="M452.5,374.4c17.9,19.5,33.2,41.2,47.6,63.3c0,0,2.2,3.3,2.2,3.3c-8.7,12.6-17.7,25-27.3,37
					c-8.8,11-17.8,21.7-27.9,31.6c11.8-25.5,27.1-49.1,43.1-72.2c0,0-0.1,6.6-0.1,6.6C475.9,421.7,462.6,398.8,452.5,374.4
					L452.5,374.4z"/>
			</g>
		</g>
		<g id="Слой_3__x28_копия7_x29_">
		</g>
		<circle class="st3" cx="351" cy="429" r="187.5"/>
	</g>
	<g id="Слой_12__x28_копия6_x29_" class="st2">
		<path d="M363,608c0.5-44.7,1.1-89.3,1.6-134h3.5c0.9-24.7,1.9-49.3,2.8-74c-2-100.3-4-200.7-6-301c-4.6-15.7-9.3-31.3-13.9-47
			c-4.7,15.7-9.4,31.3-14.1,47c-2.3,100.7-4.7,201.3-7,302c1.4,24.3,2.8,48.7,4.2,73c1.2,0,2.3,0,3.5,0c0.5,44.7,0.9,89.3,1.4,134
			c-4.7,10.7-9.3,21.3-14,32c8.7-7.7,17.3-15.3,26-23c8.7,7.7,17.4,15.3,26.2,23C372.5,629.3,367.7,618.7,363,608z"/>
	</g>
	<g id="Слой_13__x28_копия6_x29_" class="st2">
	</g>
	<g id="Слой_6__x28_копия6_x29_" class="st2">
		<path d="M283.6,165.7c-7.8,11.8-30,48.8-23.9,97.1c2.7,21.8,10.4,38.9,16.7,50.1c-56.5,34.5-85.3,99.4-72.4,160.7
			c17,80.4,96.3,109.2,100.3,110.6c-11.3-0.2-82.6-2.8-132.9-62.1c-39-46-41.3-97.8-41.4-113c4.7,11.6,14.3,30.2,33,46.5
			c8.7,7.6,17.3,13,24.7,16.7c-9.1-11.2-39.9-51.8-39.4-111.8c0.4-53.9,25.8-91.2,35-103.4c-0.5,14,0.5,34.9,8.4,58.5
			c5.3,16,12.2,28.7,18.3,38.2c-4.3-13.6-15-53.6,0.8-100.3C229.5,198.4,272.4,172.1,283.6,165.7z"/>
		<path d="M416.4,165.7c7.8,11.8,30,48.8,23.9,97.1c-2.7,21.8-10.4,38.9-16.7,50.1c56.5,34.5,85.3,99.4,72.4,160.7
			c-17,80.4-96.3,109.2-100.3,110.6c11.3-0.2,82.6-2.8,132.9-62.1c39-46,41.3-97.8,41.4-113c-4.7,11.6-14.3,30.2-33,46.5
			c-8.7,7.6-17.3,13-24.7,16.7c9.1-11.2,39.9-51.8,39.4-111.8c-0.4-53.9-25.8-91.2-35-103.4c0.5,14-0.5,34.9-8.4,58.5
			c-5.3,16-12.2,28.7-18.3,38.2c4.3-13.6,15-53.6-0.8-100.3C470.5,198.4,427.6,172.1,416.4,165.7z"/>
	</g>
	<g id="Слой_22__x28_копия5_x29_" class="st2">
		<path d="M344,470.5c-2.3-22-4.7-44-7-66c-16.7-8.7-33.3-17.3-50-26c8.7,15,17.3,30,26,45c-22.3,5-44.7,10-67,15
			c21.9,5,43.8,10.1,65.7,15.1c-7.9,17.3-15.8,34.6-23.7,51.9C306.7,493.8,325.3,482.2,344,470.5z"/>
		<path d="M358,470.5c2.3-22,4.7-44,7-66c16.7-8.7,33.3-17.3,50-26c-8.7,15-17.3,30-26,45c22.3,5,44.7,10,67,15
			c-21.9,5-43.8,10.1-65.7,15.1c7.9,17.3,15.8,34.6,23.7,51.9C395.3,493.8,376.7,482.2,358,470.5z"/>
	</g>
	<g id="Слой_14__x28_копия5_x29_" class="st2">
	</g>
</g>
</svg>
